<svg width="46" height="45" viewBox="0 0 46 45" fill="none" xmlns="http://www.w3.org/2000/svg">
<circle cx="23.024" cy="22.176" r="22.176" fill="#4B5563"/>
<path d="M10.32 21.88C10.256 21.752 10.2 21.608 10.152 21.448C10.12 21.288 10.104 21.112 10.104 20.92C10.104 20.568 10.192 20.312 10.368 20.152C10.56 19.976 10.8 19.888 11.088 19.888H20.808C20.856 20 20.904 20.144 20.952 20.32C21 20.48 21.024 20.656 21.024 20.848C21.024 21.184 20.936 21.44 20.76 21.616C20.584 21.792 20.344 21.88 20.04 21.88H10.32ZM16.704 26.392C16.592 26.44 16.44 26.48 16.248 26.512C16.072 26.544 15.88 26.56 15.672 26.56C15.288 26.56 14.992 26.48 14.784 26.32C14.592 26.16 14.496 25.864 14.496 25.432V15.472C14.624 15.424 14.776 15.384 14.952 15.352C15.144 15.32 15.352 15.304 15.576 15.304C15.96 15.304 16.24 15.384 16.416 15.544C16.608 15.704 16.704 16 16.704 16.432V26.392ZM29.1458 13.432C29.3378 13.384 29.5458 13.344 29.7698 13.312C30.0098 13.28 30.2178 13.264 30.3938 13.264C30.6978 13.264 30.9698 13.304 31.2098 13.384C31.4658 13.464 31.6738 13.608 31.8338 13.816C32.0098 14.008 32.0978 14.296 32.0978 14.68V22.6H34.3778C34.4418 22.696 34.4978 22.832 34.5458 23.008C34.6098 23.184 34.6418 23.376 34.6418 23.584C34.6418 23.92 34.5618 24.176 34.4018 24.352C34.2418 24.528 34.0178 24.616 33.7298 24.616H32.0978V28.024C32.0018 28.056 31.8498 28.088 31.6418 28.12C31.4498 28.168 31.2418 28.192 31.0178 28.192C30.6018 28.192 30.2818 28.12 30.0578 27.976C29.8338 27.816 29.7218 27.536 29.7218 27.136V24.616H23.0738C22.8658 24.504 22.6817 24.328 22.5217 24.088C22.3777 23.832 22.3057 23.544 22.3057 23.224C22.3057 23.048 22.3217 22.872 22.3537 22.696C22.3857 22.52 22.4417 22.368 22.5217 22.24L29.1458 13.432ZM29.8178 15.784H29.7698L25.0178 22.6H29.7938L29.8178 15.784Z" fill="white"/>
</svg>
